<?xml version="1.0" standalone="no"?>
<!DOCTYPE svg PUBLIC "-//W3C//DTD SVG 20010904//EN"
 "http://www.w3.org/TR/2001/REC-SVG-20010904/DTD/svg10.dtd">
<svg version="1.0" xmlns="http://www.w3.org/2000/svg"
 width="512.000000pt" height="512.000000pt" viewBox="0 0 512.000000 512.000000"
 preserveAspectRatio="xMidYMid meet">

<g transform="translate(0.000000,512.000000) scale(0.100000,-0.100000)"
fill="#000000" stroke="none">
<path d="M682 4628 c-105 -52 -219 -192 -293 -358 -22 -50 -24 -68 -23 -185 1
-204 29 -272 144 -358 153 -115 264 -162 620 -263 112 -32 423 -94 472 -94 41
0 46 -5 24 -29 -33 -37 -61 -135 -61 -215 l0 -80 -92 -36 c-106 -43 -160 -80
-169 -116 -10 -37 2 -103 22 -125 32 -36 283 -21 379 23 22 10 29 7 64 -25 64
-58 200 -117 307 -133 25 -3 48 -13 51 -21 6 -15 -45 -303 -56 -315 -3 -3 -37
1 -75 9 -87 20 -159 9 -254 -39 -97 -50 -105 -65 -110 -206 -4 -114 -3 -120
37 -247 23 -71 41 -143 41 -161 0 -40 -26 -179 -90 -484 -28 -135 -65 -317
-81 -405 -16 -88 -45 -236 -64 -330 -44 -221 -50 -265 -36 -265 6 0 11 -7 11
-15 0 -18 83 -19 818 -8 441 6 472 7 472 24 0 9 -5 19 -11 21 -13 4 6 608 19
618 4 4 135 57 292 120 l285 113 233 13 c301 17 419 44 471 110 29 37 36 71
21 99 -18 33 -51 45 -128 46 l-67 1 69 26 c121 46 171 119 109 159 -22 14 -48
18 -127 18 l-99 -1 29 21 c61 43 114 102 114 128 0 14 -4 29 -10 32 -5 3 -7
25 -3 50 8 60 -14 95 -60 95 -33 0 -124 -40 -187 -82 l-35 -23 23 38 c34 58
26 156 -14 171 -36 14 -121 -46 -193 -136 l-44 -56 -23 44 c-12 23 -28 69 -33
101 -17 89 -60 138 -103 115 -59 -32 -94 -120 -109 -270 -5 -59 -12 -130 -15
-158 l-5 -50 -169 -87 -168 -88 -30 98 c-17 54 -42 141 -57 193 -60 219 -139
448 -172 503 -19 31 -51 69 -71 84 -20 15 -40 30 -44 33 -7 5 1 60 39 277 l6
32 61 -5 c80 -7 280 -29 486 -54 91 -11 174 -20 185 -20 14 0 28 -16 48 -58
72 -146 177 -245 330 -310 57 -24 73 -27 197 -27 117 1 142 4 188 23 78 32
168 97 204 145 85 116 113 249 104 487 -3 91 -11 185 -16 210 -21 86 -71 171
-147 249 l-73 74 -233 -9 c-127 -4 -304 -8 -392 -9 -170 0 -408 14 -402 24 7
13 40 87 48 110 9 22 13 23 67 17 185 -20 408 -25 782 -16 474 10 569 22 674
84 57 33 121 104 136 151 24 74 -6 400 -45 474 -20 40 -94 120 -126 136 -40
21 -145 19 -195 -4 -23 -10 -50 -32 -61 -47 -24 -33 -65 -144 -83 -224 -30
-130 -79 -120 -198 41 -23 30 -53 61 -66 69 -52 27 -118 -56 -183 -230 -14
-36 -29 -71 -35 -77 -30 -37 -142 16 -198 92 -51 69 -88 95 -137 95 -76 0
-101 -30 -168 -201 -30 -78 -47 -96 -109 -114 l-45 -14 -27 59 c-15 33 -33 65
-40 71 -8 6 -14 22 -14 36 0 13 -6 36 -14 51 -20 38 -126 139 -158 151 -28 10
-92 -1 -103 -19 -4 -6 -34 -10 -68 -10 -45 1 -57 3 -45 10 27 16 138 36 213
39 38 1 72 4 74 6 2 2 1 12 -3 21 -6 15 -17 16 -95 10 -104 -8 -183 -27 -255
-61 -102 -49 -75 15 44 106 67 51 86 79 56 79 -19 0 -126 -82 -170 -130 -32
-35 -76 -54 -76 -32 0 13 32 56 78 104 40 41 43 48 27 54 -13 6 -30 -6 -69
-47 -28 -30 -59 -69 -68 -87 -18 -33 -38 -43 -38 -18 0 17 -81 108 -122 137
-23 17 -32 19 -41 10 -9 -10 2 -26 51 -69 34 -31 62 -60 62 -64 0 -3 -24 -12
-52 -18 -75 -18 -165 -55 -205 -86 -19 -14 -62 -61 -95 -103 -65 -82 -78 -93
-78 -64 -1 34 -54 118 -77 121 -14 2 -48 -14 -89 -42 -36 -25 -75 -46 -85 -46
-24 0 -70 72 -105 165 -55 144 -66 166 -97 182 -38 19 -101 12 -136 -16 -47
-38 -121 -72 -142 -66 -25 8 -70 75 -97 145 -24 61 -62 204 -62 235 0 31 -54
136 -88 173 -41 43 -93 44 -180 0z m156 -30 c25 -28 72 -126 72 -153 1 -37 40
-180 73 -258 34 -84 98 -157 137 -157 25 0 92 33 137 66 44 33 87 40 118 20
14 -9 25 -21 25 -26 0 -20 71 -193 102 -246 31 -57 52 -74 88 -74 27 0 75 25
120 61 19 16 38 29 42 29 16 0 46 -78 62 -160 24 -117 50 -155 122 -176 l57
-16 -6 -51 c-4 -28 -10 -54 -14 -58 -9 -9 -360 7 -448 21 -165 25 -294 55
-460 105 -297 90 -376 123 -505 214 -125 87 -144 126 -156 310 -6 95 -4 117
14 177 44 142 178 316 283 367 68 33 109 34 137 5z m3715 -395 c90 -69 124
-170 134 -398 7 -148 2 -164 -64 -229 -105 -104 -234 -124 -821 -133 -237 -3
-412 -1 -480 5 -59 6 -138 14 -177 17 l-70 7 1 65 1 66 47 12 c78 20 95 40
154 176 29 68 58 127 65 131 7 4 29 8 49 8 32 0 42 -6 80 -52 68 -80 89 -99
146 -124 102 -46 143 -28 178 79 25 76 78 178 107 205 l25 23 71 -90 c39 -50
84 -97 101 -106 73 -38 129 0 149 103 15 77 57 190 79 216 26 29 72 45 133 46
45 0 62 -5 92 -27z m-2373 -250 c-77 -58 -157 -151 -208 -240 -55 -98 -64
-133 -34 -133 11 0 33 30 65 91 73 136 249 309 314 309 22 0 13 -12 -72 -106
-71 -77 -106 -126 -132 -180 -42 -88 -49 -149 -18 -149 15 0 21 10 27 40 27
130 236 375 320 375 7 0 -4 -13 -23 -29 -34 -28 -108 -131 -142 -196 -48 -92
-69 -203 -43 -224 22 -18 36 -5 36 33 0 30 2 33 25 28 24 -4 25 -8 25 -68 0
-117 59 -238 134 -276 76 -39 156 -25 227 39 l25 23 100 -16 c54 -8 162 -20
239 -24 77 -5 190 -14 252 -21 82 -8 142 -8 225 0 62 6 200 13 306 17 l194 7
65 -69 c44 -45 78 -93 100 -141 33 -69 35 -80 46 -242 12 -182 5 -262 -33
-383 -67 -214 -337 -333 -576 -253 -163 55 -275 159 -344 319 -10 24 -22 46
-27 49 -5 3 -76 13 -159 22 -82 9 -201 23 -264 31 -143 19 -291 33 -350 34
l-46 0 -17 -107 c-10 -60 -27 -157 -38 -216 l-21 -108 21 -47 c11 -26 41 -94
66 -151 25 -57 45 -108 45 -112 0 -11 67 -188 80 -210 5 -9 25 -74 45 -143 28
-98 37 -147 38 -217 l2 -91 -139 -49 c-77 -27 -145 -48 -151 -45 -6 2 -40 114
-74 247 -174 675 -173 670 -195 667 -12 -2 -20 -10 -19 -18 1 -16 44 -183 218
-853 12 -49 28 -94 33 -99 8 -8 59 6 171 46 94 33 166 53 177 49 10 -4 21 0
28 9 6 8 65 34 131 57 66 23 167 59 225 79 l105 37 1 50 c2 59 44 207 76 268
13 23 41 64 62 90 l39 48 21 -21 c19 -18 21 -33 22 -143 2 -153 1 -147 18
-147 8 0 81 36 163 79 140 75 240 111 308 111 30 0 41 -16 24 -36 -24 -30
-135 -108 -205 -146 -85 -45 -100 -60 -81 -76 10 -9 32 -6 88 13 138 45 294
57 315 24 15 -25 -88 -81 -221 -119 -92 -26 -125 -42 -125 -60 0 -16 11 -17
158 -12 140 4 160 3 175 -12 23 -23 22 -30 -11 -67 -47 -53 -169 -78 -442 -90
l-225 -11 -563 -224 c-395 -157 -574 -224 -602 -224 -70 0 -84 11 -107 87 -21
67 -73 236 -119 383 -13 41 -37 118 -53 170 -65 211 -143 461 -174 555 -29 89
-32 112 -32 216 0 85 4 121 14 133 8 9 47 33 88 53 70 34 76 35 158 31 94 -5
123 -19 153 -73 23 -40 34 -47 51 -30 12 12 11 19 -7 49 l-21 36 20 108 c11
59 27 146 36 193 9 48 14 93 10 101 -3 10 -27 17 -71 22 -107 11 -273 80 -315
130 -13 15 -10 21 25 49 44 36 54 46 107 106 40 46 46 66 22 75 -9 3 -29 -10
-52 -37 -61 -67 -126 -126 -148 -133 -11 -4 -27 -13 -36 -20 -28 -25 -169 -54
-261 -54 -97 0 -108 7 -108 69 0 49 42 73 318 177 77 29 139 60 147 74 4 6 1
17 -5 25 -11 13 -16 13 -39 0 -44 -25 -144 -66 -148 -61 -3 2 -5 28 -6 58 -1
57 29 150 65 200 l20 28 146 -6 c186 -8 185 -8 190 104 4 89 2 93 -69 106 -45
8 -78 42 -89 92 -8 37 -6 42 47 114 96 129 134 162 224 194 65 22 78 19 39
-11z m693 -39 c31 -31 57 -59 57 -63 0 -3 -22 -4 -50 -3 -64 5 -110 -11 -153
-53 -28 -27 -38 -32 -44 -21 -4 7 -26 25 -47 40 -52 35 -137 37 -186 4 -44
-30 -88 -87 -105 -134 l-14 -39 -1 33 c0 18 12 58 27 88 44 91 119 134 231
134 55 0 75 -4 96 -21 15 -11 33 -18 41 -15 17 6 20 32 5 41 -15 9 -12 23 10
45 35 35 70 26 133 -36z m35 -118 c92 -48 148 -192 128 -328 -6 -42 -8 -44
-42 -45 -44 -1 -108 -43 -129 -83 -9 -16 -20 -30 -25 -30 -26 0 -110 23 -110
30 0 5 7 37 16 72 19 73 15 188 -9 257 -14 40 -14 46 0 68 23 35 83 73 116 73
15 0 40 -6 55 -14z m-291 -25 c71 -52 125 -203 106 -296 l-9 -40 -57 -6 c-85
-9 -127 -59 -127 -151 0 -32 -9 -34 -51 -13 -95 50 -148 237 -104 370 49 146
150 203 242 136z m-290 -153 c-3 -8 -6 -5 -6 6 -1 11 2 17 5 13 3 -3 4 -12 1
-19z m122 -1414 c40 -28 87 -115 120 -224 18 -58 44 -139 57 -180 14 -41 40
-129 58 -195 19 -66 44 -154 56 -195 12 -41 24 -81 26 -87 7 -24 39 -13 174
60 75 39 149 78 164 85 27 12 28 12 22 -10 -4 -13 -11 -36 -15 -53 -5 -23 -16
-33 -51 -47 -76 -29 -332 -118 -340 -118 -4 0 -10 35 -14 78 -7 83 -48 245
-90 357 -15 39 -45 120 -67 180 -22 61 -46 124 -53 140 -104 232 -109 252 -47
209z m878 -308 c5 -37 1 -45 -33 -81 -21 -22 -51 -60 -67 -85 l-29 -45 5 77
c6 81 45 191 76 207 21 12 42 -20 48 -73z m323 -42 c0 -35 -7 -57 -30 -91 -46
-67 -62 -103 -57 -124 4 -15 -8 -26 -63 -53 l-69 -34 5 52 c10 101 14 113 69
179 49 59 117 117 137 117 5 0 8 -21 8 -46z m246 -78 c8 -35 1 -43 -53 -50
-27 -4 -79 -17 -118 -30 l-70 -24 40 34 c43 36 149 92 177 93 11 1 20 -9 24
-23z m-1997 -716 c67 -217 127 -404 132 -415 15 -32 47 -47 108 -52 55 -5 110
11 226 62 52 23 314 125 321 125 8 0 -4 -552 -12 -575 -4 -10 -19 -15 -45 -15
l-38 0 -3 57 c-2 46 -7 59 -20 61 -16 3 -18 -5 -18 -57 l0 -61 -425 0 -425 0
0 85 c0 77 -2 85 -19 85 -17 0 -19 -9 -22 -79 -2 -44 -6 -81 -9 -84 -3 -2 -44
-7 -92 -10 l-87 -6 6 37 c3 20 14 80 25 132 10 52 35 178 54 280 30 165 56
295 85 428 20 93 88 429 95 472 l7 45 17 -60 c9 -33 72 -238 139 -455z"/>
<path d="M3697 2778 c-63 -48 -61 -274 4 -308 52 -29 110 3 129 71 24 84 2
217 -41 239 -25 14 -72 12 -92 -2z m60 -36 c19 -12 43 -78 43 -117 0 -41 -20
-94 -43 -113 -13 -11 -19 -10 -36 9 -37 40 -40 153 -6 205 17 26 23 28 42 16z"/>
<path d="M3987 2778 c-50 -38 -64 -190 -24 -268 22 -44 23 -45 72 -45 49 0 50
1 73 45 44 88 19 258 -41 274 -35 9 -62 7 -80 -6z m99 -113 c9 -50 -4 -119
-27 -144 -25 -27 -33 -27 -53 3 -35 55 -33 152 6 201 l22 28 22 -27 c13 -14
26 -42 30 -61z"/>
<path d="M2364 1743 c14 -226 19 -265 33 -270 8 -3 18 -2 23 3 8 8 -5 302 -16
352 -3 14 -12 22 -26 22 -20 0 -21 -2 -14 -107z"/>
<path d="M1713 1068 c-10 -13 -63 -368 -63 -421 0 -22 4 -28 17 -25 13 2 21
21 31 73 22 122 52 367 46 376 -7 13 -20 11 -31 -3z"/>
<path d="M1925 678 c-2 -7 -8 -96 -14 -198 -11 -188 -7 -220 23 -190 15 16 44
356 32 385 -7 18 -35 20 -41 3z"/>
<path d="M2457 653 c-3 -10 -8 -40 -12 -68 -3 -27 -15 -108 -27 -179 -18 -108
-19 -129 -7 -137 26 -16 37 15 60 171 28 193 29 223 7 228 -9 2 -18 -5 -21
-15z"/>
</g>
</svg>
